<?xml version="1.0" encoding="UTF-8" standalone="no"?>
<!DOCTYPE svg PUBLIC "-//W3C//DTD SVG 1.1//EN" "http://www.w3.org/Graphics/SVG/1.1/DTD/svg11.dtd">
<svg width="100%" height="100%" viewBox="0 0 16 16" version="1.1" xmlns="http://www.w3.org/2000/svg" xmlns:xlink="http://www.w3.org/1999/xlink" xml:space="preserve" xmlns:serif="http://www.serif.com/" style="fill-rule:evenodd;clip-rule:evenodd;stroke-linejoin:round;stroke-miterlimit:2;">
    <g transform="matrix(1,0,0,1,-361,-892)">
        <g id="safari-pinned-tab" transform="matrix(0.0570886,0,0,0.0726302,358.437,889.875)">
            <rect x="44.892" y="29.256" width="280.266" height="220.294" style="fill:none;"/>
            <g transform="matrix(19.2407,0,0,14.4223,-6928.95,-12851.9)">
                <ellipse cx="369.744" cy="900.545" rx="2.003" ry="2.1"/>
            </g>
            <g transform="matrix(19.2407,0,0,14.4223,-6975.1,-12928.3)">
                <ellipse cx="369.744" cy="900.545" rx="2.003" ry="2.1"/>
            </g>
            <g transform="matrix(19.2407,0,0,14.4223,-7030.66,-12871.7)">
                <ellipse cx="369.744" cy="900.545" rx="2.003" ry="2.1"/>
            </g>
            <g transform="matrix(19.2407,0,0,14.4223,-6828.38,-12871.4)">
                <ellipse cx="369.744" cy="900.545" rx="2.003" ry="2.1"/>
            </g>
            <g transform="matrix(19.2407,0,0,14.4223,-7010.48,-12800.7)">
                <ellipse cx="369.744" cy="900.545" rx="2.003" ry="2.1"/>
            </g>
            <g transform="matrix(19.2407,0,0,14.4223,-6847.51,-12800.7)">
                <ellipse cx="369.744" cy="900.545" rx="2.003" ry="2.1"/>
            </g>
            <g transform="matrix(19.2407,0,0,14.4223,-6927.59,-12769.1)">
                <ellipse cx="369.744" cy="900.545" rx="2.003" ry="2.1"/>
            </g>
            <g transform="matrix(19.2407,0,0,14.4223,-6883.05,-12928.1)">
                <ellipse cx="369.744" cy="900.545" rx="2.003" ry="2.1"/>
            </g>
        </g>
    </g>
</svg>
